<svg width="199" height="24" viewBox="0 0 199 24" fill="none" xmlns="http://www.w3.org/2000/svg">
<g clip-path="url(#clip0)">
<path d="M48.9336 18.5046L47.27 23.5654H30.2263V0.46582H48.5255L46.862 5.52662H36.755V9.40761H47.1131L45.4495 14.2821H36.755V18.5046H48.9336Z" fill="#00AEAE"/>
<path d="M74.8285 0.46582V23.5344H69.3984L59.1031 11.2394V23.5344H52.6372V0.46582H58.0673L68.3626 12.7608V0.46582H74.8285Z" fill="#00AEAE"/>
<path d="M84.4963 5.65081H77.3398V0.46582H98.2443V5.65081H91.1192V23.5654H84.5277V5.65081H84.4963Z" fill="#00AEAE"/>
<path d="M22.003 16.3002C24.8907 14.9031 26.5543 12.3882 26.5543 9.00398C26.5543 3.72585 22.568 0.46582 16.1962 0.46582H0L2.57382 5.61977H5.52429V23.5654H12.1158V17.418H15.7254L19.9628 23.5654H27.0251L22.003 16.3002ZM15.7882 12.3572H12.1158V5.61977H15.7882C18.5189 5.61977 19.9 6.86168 19.9 9.00398C19.9 11.1152 18.5189 12.3572 15.7882 12.3572Z" fill="#00AEAE"/>
<path d="M99.155 12.0155C99.155 4.96766 104.617 0 111.993 0C116.293 0 119.746 1.55239 122.037 4.3467L117.831 8.10349C116.356 6.36481 114.567 5.40233 112.338 5.40233C108.509 5.40233 105.841 8.0414 105.841 11.9845C105.841 15.9276 108.509 18.5666 112.338 18.5666C114.567 18.5666 116.356 17.6041 117.831 15.8655L122.037 19.6223C119.777 22.4166 116.293 23.969 111.993 23.969C104.617 24 99.155 19.0323 99.155 12.0155Z" fill="white"/>
<path d="M123.292 12.0155C123.292 5.09185 128.785 0 136.255 0C143.726 0 149.219 5.09185 149.219 12.0155C149.219 18.9392 143.726 24.031 136.255 24.031C128.785 24.031 123.292 18.9392 123.292 12.0155ZM142.564 12.0155C142.564 8.01035 139.802 5.43338 136.255 5.43338C132.709 5.43338 129.947 8.0414 129.947 12.0155C129.947 15.9897 132.709 18.5977 136.255 18.5977C139.802 18.5977 142.564 15.9897 142.564 12.0155Z" fill="white"/>
<path d="M199 18.5046L197.337 23.5654H180.262V0.46582H198.561L196.897 5.52662H186.79V9.40761H197.148L195.485 14.2821H186.79V18.5046H199Z" fill="white"/>
<path d="M163.752 0.46582H147.179L149.753 5.61977H152.703V23.5654H163.752C171.473 23.5654 176.778 19.1256 176.778 12.0156C176.778 4.90566 171.473 0.46582 163.752 0.46582ZM163.469 18.3494H159.294V5.68186H163.469C167.424 5.68186 170.092 8.01045 170.092 12.0156C170.092 15.9898 167.455 18.3494 163.469 18.3494Z" fill="white"/>
</g>
<defs>
<clipPath id="clip0">
<rect width="199" height="24" fill="white"/>
</clipPath>
</defs>
</svg>